<svg width="250" height="250" viewBox="0 0 250 250" fill="none" xmlns="http://www.w3.org/2000/svg">
<circle cx="125" cy="125" r="122.5" fill="white" fill-opacity="0.8" stroke="#2F81CD" stroke-width="5" stroke-linecap="square" stroke-dasharray="20 20"/>
<path d="M152 155.576C150.976 156.6 149.397 158.051 147.264 159.928C145.216 161.72 143.04 163.427 140.736 165.048C138.517 166.669 136.64 167.693 135.104 168.12C133.312 168.632 131.691 169.187 130.24 169.784C128.789 170.381 127.211 170.893 125.504 171.32C123.797 171.832 121.664 172.088 119.104 172.088C115.52 172.088 111.68 171.448 107.584 170.168C103.488 168.973 99.648 167.48 96.064 165.688C92.48 163.981 89.5787 162.317 87.36 160.696C82.9227 157.368 79.5093 152.888 77.12 147.256C74.816 141.539 73.664 134.84 73.664 127.16C73.664 125.027 73.8773 122.723 74.304 120.248C74.7307 117.688 75.2427 115.299 75.84 113.08C76.4373 110.776 77.0347 108.941 77.632 107.576C79.424 103.48 81.6 99.4693 84.16 95.544C86.8053 91.6187 90.2187 88.3333 94.4 85.688C96.6187 84.2373 99.4347 82.744 102.848 81.208C106.261 79.5867 110.741 78.776 116.288 78.776C117.056 78.776 117.867 78.8187 118.72 78.904C119.573 78.904 120.427 78.9467 121.28 79.032C125.973 79.544 130.112 80.9947 133.696 83.384C137.365 85.7733 140.224 88.2907 142.272 90.936C143.211 92.1307 144.021 93.7093 144.704 95.672C145.387 97.6347 145.728 99.7253 145.728 101.944C145.728 102.968 145.643 103.992 145.472 105.016C145.387 106.04 145.131 107.064 144.704 108.088C143.68 111.245 142.272 114.189 140.48 116.92C138.773 119.651 136.64 121.869 134.08 123.576C131.52 125.197 128.448 126.008 124.864 126.008C121.707 126.008 119.275 125.795 117.568 125.368C115.861 124.941 114.453 124.259 113.344 123.32C112.235 122.296 110.955 120.931 109.504 119.224C108.309 117.773 107.499 116.152 107.072 114.36C106.645 112.483 106.432 110.733 106.432 109.112C106.432 107.491 106.432 106.339 106.432 105.656C106.432 103.608 107.285 101.56 108.992 99.512C110.784 97.3787 112.875 95.5867 115.264 94.136C117.739 92.6853 119.915 91.96 121.792 91.96C123.499 91.96 124.864 92.6427 125.888 94.008C126.912 95.288 127.637 96.7387 128.064 98.36C128.576 99.9813 128.832 101.261 128.832 102.2C128.832 103.48 128.661 104.931 128.32 106.552C127.979 108.173 126.827 109.709 124.864 111.16C124.523 111.501 124.181 111.672 123.84 111.672C123.243 111.672 122.944 111.245 122.944 110.392C122.944 109.965 123.072 109.453 123.328 108.856C123.584 108.259 124.011 107.747 124.608 107.32C125.291 106.808 125.717 106.211 125.888 105.528C126.059 104.845 126.144 104.205 126.144 103.608C126.144 103.096 126.101 102.627 126.016 102.2C126.016 101.688 126.016 101.261 126.016 100.92C126.016 100.237 125.632 99.2987 124.864 98.104C124.096 96.824 123.072 96.184 121.792 96.184C120.512 96.184 118.976 96.696 117.184 97.72C115.477 98.6587 113.984 99.8533 112.704 101.304C111.424 102.755 110.784 104.205 110.784 105.656C110.784 106.509 111.296 107.832 112.32 109.624C113.429 111.416 114.667 113.165 116.032 114.872C117.141 116.152 117.909 117.176 118.336 117.944C118.848 118.712 119.531 119.267 120.384 119.608C121.323 119.864 123.029 119.992 125.504 119.992C129.771 119.992 133.013 118.712 135.232 116.152C137.451 113.507 139.243 110.349 140.608 106.68C141.12 104.973 141.376 103.352 141.376 101.816C141.376 100.109 141.12 98.5307 140.608 97.08C140.181 95.6293 139.627 94.4773 138.944 93.624C137.237 91.32 135.232 89.6133 132.928 88.504C130.624 87.3093 127.467 86.5413 123.456 86.2C122.688 86.1147 121.92 86.072 121.152 86.072C120.469 85.9867 119.787 85.944 119.104 85.944C113.984 85.944 109.888 86.712 106.816 88.248C103.829 89.784 101.227 91.192 99.008 92.472C95.168 94.776 92.096 97.72 89.792 101.304C87.488 104.888 85.4827 108.557 83.776 112.312C83.264 113.507 82.7093 115.171 82.112 117.304C81.6 119.437 81.1733 121.656 80.832 123.96C80.4907 126.264 80.32 128.355 80.32 130.232C80.32 137.059 80.9173 142.52 82.112 146.616C83.3067 150.712 85.9093 154.253 89.92 157.24C92.0533 158.776 94.784 160.355 98.112 161.976C101.44 163.597 104.939 164.963 108.608 166.072C112.363 167.267 115.861 167.864 119.104 167.864C122.603 167.864 125.333 167.395 127.296 166.456C129.259 165.603 131.435 164.792 133.824 164.024C135.275 163.597 137.109 162.744 139.328 161.464C141.547 160.184 143.68 158.819 145.728 157.368C147.861 155.917 149.397 154.765 150.336 153.912C150.933 153.315 151.531 153.016 152.128 153.016C152.64 153.016 152.896 153.272 152.896 153.784C152.896 154.381 152.597 154.979 152 155.576ZM181.095 154.296C179.986 155.405 179.004 156.515 178.151 157.624C177.298 158.733 175.42 160.013 172.519 161.464C172.178 161.976 171.41 162.744 170.215 163.768C169.106 164.792 166.887 165.389 163.559 165.56C161.34 165.645 159.548 165.091 158.183 163.896C156.903 162.787 155.922 161.421 155.239 159.8C154.556 158.179 153.959 156.685 153.447 155.32C153.362 155.405 152.978 155.747 152.295 156.344C151.612 156.941 150.93 157.539 150.247 158.136C149.479 158.733 149.01 159.117 148.839 159.288C148.754 159.373 148.583 159.416 148.327 159.416C147.9 159.416 147.559 159.203 147.303 158.776C146.962 158.264 146.962 157.837 147.303 157.496C148.924 155.875 150.162 154.637 151.015 153.784C151.868 152.845 152.636 151.949 153.319 151.096C154.002 150.243 154.812 149.176 155.751 147.896C157.202 145.677 158.738 143.715 160.359 142.008C162.066 140.216 163.132 138.893 163.559 138.04C163.644 137.955 163.687 137.784 163.687 137.528C163.687 137.272 163.559 137.059 163.303 136.888C163.132 136.717 163.004 136.504 162.919 136.248C162.578 134.883 162.407 133.603 162.407 132.408C162.407 130.531 163.132 128.312 164.583 125.752C165.18 125.325 165.991 124.984 167.015 124.728C168.039 124.387 168.85 124.344 169.447 124.6C170.13 124.941 170.556 125.325 170.727 125.752C170.983 126.179 171.196 126.733 171.367 127.416C171.367 127.501 171.367 127.587 171.367 127.672C171.452 127.757 171.495 127.885 171.495 128.056C171.495 128.568 171.41 129.123 171.239 129.72C171.068 130.317 170.855 130.957 170.599 131.64C170.599 131.981 170.172 132.621 169.319 133.56C168.551 134.499 168.295 135.096 168.551 135.352C169.063 136.461 169.916 137.912 171.111 139.704C172.562 141.752 173.543 143.629 174.055 145.336C174.652 147.043 174.951 148.579 174.951 149.944C174.951 151.565 174.695 152.973 174.183 154.168C173.756 155.363 173.415 156.387 173.159 157.24C173.927 157.325 174.823 156.941 175.847 156.088C176.871 155.149 177.852 154.125 178.791 153.016C179.815 151.821 180.583 150.968 181.095 150.456C181.607 149.944 181.991 149.688 182.247 149.688C182.674 149.688 182.674 150.328 182.247 151.608C181.906 152.888 181.522 153.784 181.095 154.296ZM168.679 129.72C168.679 129.379 168.636 128.995 168.551 128.568C168.466 128.141 168.21 127.885 167.783 127.8H167.655C167.228 127.8 166.887 128.013 166.631 128.44C166.375 128.781 166.162 129.123 165.991 129.464C165.735 130.147 165.479 130.744 165.223 131.256C165.052 131.683 165.138 132.109 165.479 132.536C165.82 132.707 166.418 132.365 167.271 131.512C168.21 130.573 168.679 129.976 168.679 129.72ZM168.935 150.2C168.935 148.92 168.679 147.555 168.167 146.104C167.74 144.568 167.228 143.203 166.631 142.008C166.119 140.813 165.735 140.045 165.479 139.704C165.479 139.704 164.967 140.344 163.943 141.624C162.919 142.819 161.81 144.141 160.615 145.592C159.847 146.445 159.079 147.555 158.311 148.92C157.543 150.285 157.074 151.48 156.903 152.504C156.903 152.504 157.287 153.016 158.055 154.04C158.823 154.979 159.762 155.875 160.871 156.728C162.066 157.581 163.218 157.88 164.327 157.624C166.034 157.197 167.228 156.216 167.911 154.68C168.594 153.059 168.935 151.565 168.935 150.2ZM164.583 160.184H163.431C163.09 160.184 162.706 160.184 162.279 160.184C161.852 160.099 161.426 160.013 160.999 159.928C160.572 159.757 159.932 159.416 159.079 158.904C158.226 158.392 157.799 158.136 157.799 158.136C157.799 158.136 157.756 158.221 157.671 158.392C157.671 158.563 157.671 158.776 157.671 159.032C157.671 159.373 157.714 159.757 157.799 160.184C157.97 160.611 158.268 161.037 158.695 161.464C159.378 161.976 159.975 162.403 160.487 162.744C160.999 163 161.682 163 162.535 162.744C163.132 162.573 163.602 162.104 163.943 161.336C164.37 160.568 164.583 160.184 164.583 160.184Z" fill="#2F81CD"/>
</svg>
