<?xml version="1.0" standalone="no"?>
<!DOCTYPE svg PUBLIC "-//W3C//DTD SVG 20010904//EN"
 "http://www.w3.org/TR/2001/REC-SVG-20010904/DTD/svg10.dtd">
<svg version="1.0" xmlns="http://www.w3.org/2000/svg"
 width="700.000000pt" height="700.000000pt" viewBox="0 0 700.000000 700.000000"
 preserveAspectRatio="xMidYMid meet">
<metadata>
Created by potrace 1.14, written by Peter Selinger 2001-2017
</metadata>
<g transform="translate(0.000000,700.000000) scale(0.100000,-0.100000)"
fill="#000000" stroke="none">
<path d="M3180 6990 c-41 -4 -115 -13 -163 -20 -73 -10 -87 -15 -83 -29 2 -9
7 -38 11 -66 4 -27 9 -53 10 -56 2 -3 46 0 97 7 117 17 443 36 529 32 l64 -3
3 73 3 72 -198 -1 c-109 -1 -232 -5 -273 -9z"/>
<path d="M4061 6904 c-18 -94 -21 -89 77 -108 162 -32 447 -113 563 -160 12
-5 20 8 38 59 14 38 20 70 15 75 -26 26 -382 129 -564 165 -47 9 -92 18 -101
21 -13 3 -19 -8 -28 -52z"/>
<path d="M2363 6815 c-218 -78 -503 -205 -503 -225 0 -15 53 -120 61 -120 4 0
59 25 123 55 133 62 302 130 426 170 47 15 87 29 89 31 1 1 -7 32 -19 68 -15
47 -26 66 -38 65 -9 0 -72 -20 -139 -44z"/>
<path d="M5138 6568 c-8 -13 -25 -42 -36 -65 l-22 -41 68 -38 c108 -60 289
-180 401 -267 l104 -80 43 49 c24 27 43 54 41 61 -5 30 -356 278 -518 367
l-66 36 -15 -22z"/>
<path d="M1385 6294 c-124 -95 -222 -180 -342 -298 l-93 -90 52 -53 52 -53
101 98 c120 117 199 186 320 278 50 38 92 74 93 79 2 10 -69 114 -78 115 -3 0
-50 -34 -105 -76z"/>
<path d="M6001 5850 l-55 -48 50 -57 c106 -123 209 -255 286 -370 45 -66 82
-122 84 -123 2 -3 109 61 122 73 5 5 -131 207 -201 299 -51 67 -184 225 -221
263 -8 9 -24 0 -65 -37z"/>
<path d="M590 5450 c-78 -116 -184 -298 -249 -428 l-31 -62 65 -32 c35 -18 66
-30 68 -27 2 2 41 74 86 159 46 85 122 214 170 285 47 72 87 135 89 141 3 10
-94 84 -110 84 -4 0 -44 -54 -88 -120z"/>
<path d="M6620 4923 c-30 -13 -57 -26 -58 -28 -2 -2 21 -66 51 -142 61 -152
114 -316 142 -435 10 -43 23 -78 27 -78 5 0 38 7 73 16 75 19 74 -8 9 222 -46
160 -162 464 -179 468 -5 1 -35 -9 -65 -23z"/>
<path d="M3105 4790 c-108 -15 -188 -41 -300 -97 -290 -144 -425 -283 -584
-599 -62 -125 -95 -223 -133 -398 -30 -134 -32 -423 -5 -561 50 -250 128 -412
269 -555 118 -119 346 -244 592 -325 186 -61 285 -78 426 -73 109 5 124 8 295
67 193 66 242 93 394 215 45 37 87 66 94 66 6 0 40 25 75 56 35 31 64 55 66
53 2 -2 18 -40 37 -83 41 -100 103 -169 169 -186 57 -15 169 -6 224 19 23 10
57 34 76 53 19 18 61 49 92 66 98 56 209 193 220 271 6 48 -24 31 -117 -67
-53 -55 -104 -102 -115 -105 -24 -6 -24 -7 0 71 41 130 18 247 -75 396 -94
149 -96 158 -51 196 9 7 25 41 35 75 24 76 15 122 -27 155 -21 17 -35 20 -66
16 -67 -11 -91 -30 -121 -98 -35 -77 -40 -179 -10 -241 20 -43 25 -33 -70
-142 -34 -38 -101 -123 -149 -187 -75 -102 -101 -128 -194 -197 -123 -92 -284
-192 -357 -221 -111 -44 -272 -103 -310 -112 -57 -14 -240 -14 -310 1 -179 38
-460 155 -611 253 -229 150 -305 330 -307 733 -2 267 42 460 149 665 138 262
231 361 451 483 77 42 166 86 198 97 179 62 499 46 663 -32 79 -37 166 -122
201 -197 23 -50 26 -68 26 -171 0 -103 -3 -121 -27 -176 -75 -169 -156 -267
-254 -304 -48 -18 -79 -22 -169 -23 -67 0 -119 5 -133 12 -27 14 -194 236
-227 302 -34 65 -32 114 4 171 53 83 187 167 267 168 31 0 46 -6 66 -27 41
-44 49 -69 51 -152 2 -77 2 -79 -35 -119 -54 -60 -65 -124 -23 -130 26 -4 102
70 122 117 8 19 17 67 20 107 13 169 -86 335 -198 334 -125 -2 -339 -152 -404
-285 -26 -53 -27 -59 -23 -197 3 -136 5 -146 35 -210 23 -48 54 -89 110 -146
98 -98 135 -112 313 -119 186 -8 280 22 388 121 87 80 177 230 227 380 46 137
32 297 -37 427 -82 155 -326 329 -523 372 -85 19 -308 29 -390 17z m1603
-1382 c7 -7 12 -19 12 -28 0 -17 -67 -90 -82 -90 -21 0 2 76 34 118 13 15 21
15 36 0z m3 -527 c21 -82 16 -147 -17 -216 -33 -69 -116 -94 -180 -54 -43 26
-114 107 -114 129 0 35 61 133 147 237 l88 105 28 -63 c16 -34 37 -97 48 -138z
m-235 -346 c27 -14 64 -25 85 -25 37 0 38 -1 27 -24 -12 -28 -58 -51 -85 -42
-35 11 -83 64 -83 90 0 14 2 26 4 26 3 0 26 -11 52 -25z"/>
<path d="M155 4548 c-40 -114 -105 -410 -128 -586 -16 -117 -24 -105 80 -117
l52 -6 6 48 c26 196 97 531 130 615 5 14 -6 20 -60 37 -79 25 -74 24 -80 9z"/>
<path d="M6867 3843 l-28 -4 5 -82 c3 -45 8 -120 11 -167 9 -140 -24 -576 -51
-686 -5 -20 0 -23 66 -34 39 -7 73 -10 75 -9 1 2 13 72 25 154 25 168 38 543
25 728 l-7 107 -46 -1 c-26 -1 -60 -4 -75 -6z"/>
<path d="M3 3424 c-9 -23 5 -246 23 -378 13 -101 53 -317 58 -324 2 -1 34 5
73 14 l70 16 -14 66 c-27 126 -53 327 -59 452 -8 182 -2 170 -80 170 -50 0
-66 -4 -71 -16z"/>
<path d="M6657 2361 c-50 -138 -135 -329 -193 -436 -20 -36 -35 -67 -33 -69
11 -8 117 -66 122 -66 10 0 94 162 150 290 52 119 137 341 137 358 0 7 -114
52 -131 52 -3 0 -27 -58 -52 -129z"/>
<path d="M263 2338 c-29 -11 -53 -27 -53 -34 0 -37 129 -327 216 -484 93 -171
80 -160 153 -116 59 36 61 39 48 60 -69 107 -217 410 -268 551 -8 22 -21 41
-29 42 -8 1 -39 -7 -67 -19z"/>
<path d="M6119 1402 c-52 -64 -157 -181 -233 -260 l-140 -143 52 -51 51 -52
91 90 c135 131 380 415 380 441 0 4 -24 27 -54 50 l-54 42 -93 -117z"/>
<path d="M811 1363 l-53 -48 109 -125 c104 -118 290 -303 360 -357 l33 -25 44
48 c25 27 45 52 46 56 0 4 -21 27 -47 50 -114 102 -252 241 -336 338 -50 58
-93 106 -97 108 -3 1 -30 -19 -59 -45z"/>
<path d="M5325 684 c-113 -73 -314 -185 -422 -234 -40 -18 -73 -37 -73 -42 0
-5 13 -35 30 -68 l30 -59 102 48 c174 82 517 283 518 304 0 10 -72 117 -79
117 -3 0 -51 -30 -106 -66z"/>
<path d="M1640 618 l-39 -62 33 -22 c110 -75 398 -222 558 -285 l49 -19 25 55
c13 31 24 62 24 69 0 8 -44 32 -102 57 -128 54 -299 141 -418 213 l-91 56 -39
-62z"/>
<path d="M4310 245 c-146 -38 -338 -72 -458 -82 l-85 -6 7 -70 c4 -39 9 -73
11 -76 17 -16 480 62 635 107 72 21 70 16 44 110 -9 28 -18 51 -22 51 -4 -1
-63 -17 -132 -34z"/>
<path d="M2675 228 c-20 -65 -27 -121 -15 -128 37 -23 414 -83 598 -96 l102
-7 2 57 c1 31 2 64 2 73 1 16 -17 19 -139 29 -154 13 -302 35 -440 65 -105 23
-105 22 -110 7z"/>
</g>
</svg>
